<?xml version="1.0" encoding="UTF-8" standalone="no"?>
<!-- Created with Inkscape (http://www.inkscape.org/) -->

<svg
   width="29.519901mm"
   height="9.7851429mm"
   viewBox="0 0 83.67846 27.737412"
   version="1.1"
   id="svg1"
   xml:space="preserve"
   xmlns="http://www.w3.org/2000/svg"
   xmlns:svg="http://www.w3.org/2000/svg"><defs
     id="defs1"><marker
       style="overflow:visible"
       id="RoundedArrow-6"
       refX="0"
       refY="0"
       orient="auto-start-reverse"
       markerWidth="0.5"
       markerHeight="0.5"
       viewBox="0 0 1 1"
       preserveAspectRatio="xMidYMid"><path
         transform="scale(0.7)"
         d="m -0.21114562,-4.1055728 6.42229122,3.21114561 a 1,1 90 0 1 0,1.78885438 L -0.21114562,4.1055728 A 1.236068,1.236068 31.717474 0 1 -2,3 v -6 a 1.236068,1.236068 148.28253 0 1 1.78885438,-1.1055728 z"
         style="fill:context-stroke;fill-rule:evenodd;stroke:none"
         id="path8-5" /></marker><marker
       style="overflow:visible"
       id="RoundedArrow-6-1"
       refX="0"
       refY="0"
       orient="auto-start-reverse"
       markerWidth="0.5"
       markerHeight="0.5"
       viewBox="0 0 1 1"
       preserveAspectRatio="xMidYMid"><path
         transform="scale(0.7)"
         d="m -0.21114562,-4.1055728 6.42229122,3.21114561 a 1,1 90 0 1 0,1.78885438 L -0.21114562,4.1055728 A 1.236068,1.236068 31.717474 0 1 -2,3 v -6 a 1.236068,1.236068 148.28253 0 1 1.78885438,-1.1055728 z"
         style="fill:context-stroke;fill-rule:evenodd;stroke:none"
         id="path8-5-3" /></marker></defs><g
     id="layer1"
     style="display:inline"
     transform="translate(-71.546587,-102.69354)"><g
       id="g24"
       transform="translate(-226.77164)"
       style="display:inline"><rect
         style="fill:#add9fc;fill-opacity:1;stroke:#86a7d9;stroke-width:1.41732;stroke-linecap:round;stroke-linejoin:round;stroke-dasharray:none;stroke-dashoffset:0;stroke-opacity:1"
         id="rect19-4-3-2"
         width="48.294594"
         height="12.262711"
         x="316.01016"
         y="113.38583" /><path
         style="fill:#efb2bb;fill-opacity:1;stroke:#efb2bb;stroke-width:2.83465;stroke-linecap:round;stroke-linejoin:round;stroke-dasharray:none;stroke-dashoffset:0;stroke-opacity:1;marker-end:url(#RoundedArrow-6)"
         d="m 382.15657,155.90551 c 1.81341,5.66929 1.81341,14.17323 0,17.00787"
         id="path26-0"
         transform="translate(-9.5788339,-48.328971)" /><path
         style="fill:#efb2bb;fill-opacity:1;stroke:#efb2bb;stroke-width:2.83465;stroke-linecap:round;stroke-linejoin:round;stroke-dasharray:none;stroke-dashoffset:0;stroke-opacity:1;marker-end:url(#RoundedArrow-6-1)"
         d="m 382.15657,155.90551 c 1.81341,5.66929 1.81341,14.17323 0,17.00787"
         id="path26-0-4"
         transform="matrix(-1,0,0,1,689.89374,-48.328972)" /><text
         xml:space="preserve"
         style="font-style:normal;font-variant:normal;font-weight:normal;font-stretch:normal;font-size:11.3386px;line-height:1.5;font-family:'Atkinson Hyperlegible';-inkscape-font-specification:'Atkinson Hyperlegible';text-align:center;writing-mode:lr-tb;direction:ltr;text-anchor:middle;fill:#efb2bb;fill-opacity:1;stroke:#efb2bb;stroke-width:0.566929;stroke-linecap:round;stroke-linejoin:round;stroke-dasharray:none;stroke-dashoffset:0;stroke-opacity:1"
         x="340.15744"
         y="110.55118"
         id="text27"><tspan
           id="tspan27"
           style="font-size:11.3386px;stroke-width:0.566929;stroke-dasharray:none"
           x="340.15744"
           y="110.55118">M</tspan></text></g></g></svg>
